<svg id="visual" viewBox="0 0 900 600" width="900" height="600" xmlns="http://www.w3.org/2000/svg" xmlns:xlink="http://www.w3.org/1999/xlink" version="1.1"><g stroke-width="1" stroke-linejoin="bevel"><path d="M474 326L494 393L586 316Z" fill="#008a9f" stroke="#008a9f"></path><path d="M494 393L582 396L586 316Z" fill="#0d556b" stroke="#0d556b"></path><path d="M437 229L403 315L474 326Z" fill="#037c93" stroke="#037c93"></path><path d="M474 326L434 438L494 393Z" fill="#037c93" stroke="#037c93"></path><path d="M403 315L434 438L474 326Z" fill="#076f86" stroke="#076f86"></path><path d="M494 393L523 481L582 396Z" fill="#0d556b" stroke="#0d556b"></path><path d="M434 438L523 481L494 393Z" fill="#0e3c50" stroke="#0e3c50"></path><path d="M529 194L437 229L474 326Z" fill="#076f86" stroke="#076f86"></path><path d="M586 316L529 194L474 326Z" fill="#0a2635" stroke="#0a2635"></path><path d="M582 396L700 286L586 316Z" fill="#071b28" stroke="#071b28"></path><path d="M586 316L639 189L529 194Z" fill="#0e485e" stroke="#0e485e"></path><path d="M729 422L700 286L582 396Z" fill="#037c93" stroke="#037c93"></path><path d="M700 286L639 189L586 316Z" fill="#0e485e" stroke="#0e485e"></path><path d="M565 533L666 480L582 396Z" fill="#00101c" stroke="#00101c"></path><path d="M490 600L565 533L523 481Z" fill="#0a2635" stroke="#0a2635"></path><path d="M523 481L565 533L582 396Z" fill="#071b28" stroke="#071b28"></path><path d="M666 480L729 422L582 396Z" fill="#0a2635" stroke="#0a2635"></path><path d="M437 229L336 266L403 315Z" fill="#00101c" stroke="#00101c"></path><path d="M282 437L390 520L434 438Z" fill="#0b6179" stroke="#0b6179"></path><path d="M312 218L336 266L437 229Z" fill="#0d556b" stroke="#0d556b"></path><path d="M639 189L590 129L529 194Z" fill="#008a9f" stroke="#008a9f"></path><path d="M529 194L393 114L437 229Z" fill="#037c93" stroke="#037c93"></path><path d="M282 437L434 438L403 315Z" fill="#0a2635" stroke="#0a2635"></path><path d="M434 438L390 520L523 481Z" fill="#0a2635" stroke="#0a2635"></path><path d="M788 484L729 422L666 480Z" fill="#076f86" stroke="#076f86"></path><path d="M788 484L768 431L729 422Z" fill="#071b28" stroke="#071b28"></path><path d="M729 422L787 339L700 286Z" fill="#071b28" stroke="#071b28"></path><path d="M393 114L312 218L437 229Z" fill="#076f86" stroke="#076f86"></path><path d="M336 266L282 437L403 315Z" fill="#071b28" stroke="#071b28"></path><path d="M768 431L787 339L729 422Z" fill="#00101c" stroke="#00101c"></path><path d="M700 286L736 177L639 189Z" fill="#071b28" stroke="#071b28"></path><path d="M639 189L710 70L590 129Z" fill="#0a2635" stroke="#0a2635"></path><path d="M390 520L490 600L523 481Z" fill="#00101c" stroke="#00101c"></path><path d="M565 533L588 600L666 480Z" fill="#008a9f" stroke="#008a9f"></path><path d="M490 600L588 600L565 533Z" fill="#008a9f" stroke="#008a9f"></path><path d="M784 208L736 177L700 286Z" fill="#0a2635" stroke="#0a2635"></path><path d="M582 0L524 81L590 129Z" fill="#0b6179" stroke="#0b6179"></path><path d="M590 129L524 81L529 194Z" fill="#0d556b" stroke="#0d556b"></path><path d="M200 387L282 437L336 266Z" fill="#0a2635" stroke="#0a2635"></path><path d="M390 520L391 600L490 600Z" fill="#0b6179" stroke="#0b6179"></path><path d="M524 81L393 114L529 194Z" fill="#0d556b" stroke="#0d556b"></path><path d="M282 437L290 491L390 520Z" fill="#00101c" stroke="#00101c"></path><path d="M787 339L784 208L700 286Z" fill="#0e3c50" stroke="#0e3c50"></path><path d="M737 600L788 484L666 480Z" fill="#071b28" stroke="#071b28"></path><path d="M768 431L900 370L787 339Z" fill="#00101c" stroke="#00101c"></path><path d="M328 600L391 600L390 520Z" fill="#0d556b" stroke="#0d556b"></path><path d="M290 491L328 600L390 520Z" fill="#0c3143" stroke="#0c3143"></path><path d="M588 600L737 600L666 480Z" fill="#008a9f" stroke="#008a9f"></path><path d="M836 89L710 70L736 177Z" fill="#008a9f" stroke="#008a9f"></path><path d="M736 177L710 70L639 189Z" fill="#076f86" stroke="#076f86"></path><path d="M282 437L227 533L290 491Z" fill="#0a2635" stroke="#0a2635"></path><path d="M290 491L227 533L328 600Z" fill="#0b6179" stroke="#0b6179"></path><path d="M191 296L200 387L336 266Z" fill="#0e485e" stroke="#0e485e"></path><path d="M417 0L332 67L393 114Z" fill="#0e3c50" stroke="#0e3c50"></path><path d="M393 114L332 67L312 218Z" fill="#0a2635" stroke="#0a2635"></path><path d="M312 218L191 296L336 266Z" fill="#0c3143" stroke="#0c3143"></path><path d="M417 0L393 114L524 81Z" fill="#0e3c50" stroke="#0e3c50"></path><path d="M195 200L191 296L312 218Z" fill="#076f86" stroke="#076f86"></path><path d="M582 0L487 0L524 81Z" fill="#071b28" stroke="#071b28"></path><path d="M710 70L582 0L590 129Z" fill="#0d556b" stroke="#0d556b"></path><path d="M200 387L227 533L282 437Z" fill="#00101c" stroke="#00101c"></path><path d="M487 0L417 0L524 81Z" fill="#0e485e" stroke="#0e485e"></path><path d="M332 67L195 200L312 218Z" fill="#0d556b" stroke="#0d556b"></path><path d="M788 484L900 370L768 431Z" fill="#0e485e" stroke="#0e485e"></path><path d="M787 339L900 287L784 208Z" fill="#008a9f" stroke="#008a9f"></path><path d="M784 208L836 89L736 177Z" fill="#008a9f" stroke="#008a9f"></path><path d="M900 496L900 370L788 484Z" fill="#0d556b" stroke="#0d556b"></path><path d="M900 370L900 287L787 339Z" fill="#0a2635" stroke="#0a2635"></path><path d="M710 70L698 0L582 0Z" fill="#076f86" stroke="#076f86"></path><path d="M832 0L698 0L710 70Z" fill="#0a2635" stroke="#0a2635"></path><path d="M737 600L832 600L788 484Z" fill="#071b28" stroke="#071b28"></path><path d="M417 0L338 0L332 67Z" fill="#0e3c50" stroke="#0e3c50"></path><path d="M332 67L193 68L195 200Z" fill="#0d556b" stroke="#0d556b"></path><path d="M227 533L228 600L328 600Z" fill="#008a9f" stroke="#008a9f"></path><path d="M133 522L228 600L227 533Z" fill="#0c3143" stroke="#0c3143"></path><path d="M900 167L836 89L784 208Z" fill="#00101c" stroke="#00101c"></path><path d="M832 600L900 496L788 484Z" fill="#037c93" stroke="#037c93"></path><path d="M900 287L900 167L784 208Z" fill="#0e485e" stroke="#0e485e"></path><path d="M82 166L108 310L195 200Z" fill="#076f86" stroke="#076f86"></path><path d="M195 200L108 310L191 296Z" fill="#071b28" stroke="#071b28"></path><path d="M191 296L108 310L200 387Z" fill="#0c3143" stroke="#0c3143"></path><path d="M200 387L133 522L227 533Z" fill="#0a2635" stroke="#0a2635"></path><path d="M900 167L900 116L836 89Z" fill="#00101c" stroke="#00101c"></path><path d="M836 89L832 0L710 70Z" fill="#00101c" stroke="#00101c"></path><path d="M94 396L133 522L200 387Z" fill="#0b6179" stroke="#0b6179"></path><path d="M338 0L193 68L332 67Z" fill="#076f86" stroke="#076f86"></path><path d="M108 310L94 396L200 387Z" fill="#0a2635" stroke="#0a2635"></path><path d="M832 600L900 600L900 496Z" fill="#071b28" stroke="#071b28"></path><path d="M900 0L832 0L836 89Z" fill="#037c93" stroke="#037c93"></path><path d="M193 68L82 166L195 200Z" fill="#0e485e" stroke="#0e485e"></path><path d="M108 310L0 318L94 396Z" fill="#0c3143" stroke="#0c3143"></path><path d="M0 600L118 600L133 522Z" fill="#00101c" stroke="#00101c"></path><path d="M133 522L118 600L228 600Z" fill="#0e485e" stroke="#0e485e"></path><path d="M338 0L180 0L193 68Z" fill="#037c93" stroke="#037c93"></path><path d="M193 68L73 91L82 166Z" fill="#008a9f" stroke="#008a9f"></path><path d="M900 116L900 0L836 89Z" fill="#076f86" stroke="#076f86"></path><path d="M100 0L73 91L193 68Z" fill="#0c3143" stroke="#0c3143"></path><path d="M0 207L0 318L108 310Z" fill="#0c3143" stroke="#0c3143"></path><path d="M0 207L108 310L82 166Z" fill="#0d556b" stroke="#0d556b"></path><path d="M94 396L0 462L133 522Z" fill="#0e3c50" stroke="#0e3c50"></path><path d="M0 318L0 401L94 396Z" fill="#0e485e" stroke="#0e485e"></path><path d="M0 401L0 462L94 396Z" fill="#076f86" stroke="#076f86"></path><path d="M0 90L0 207L82 166Z" fill="#071b28" stroke="#071b28"></path><path d="M180 0L100 0L193 68Z" fill="#00101c" stroke="#00101c"></path><path d="M73 91L0 90L82 166Z" fill="#0c3143" stroke="#0c3143"></path><path d="M0 462L0 600L133 522Z" fill="#00101c" stroke="#00101c"></path><path d="M0 0L0 90L73 91Z" fill="#0e3c50" stroke="#0e3c50"></path><path d="M100 0L0 0L73 91Z" fill="#0d556b" stroke="#0d556b"></path></g></svg>