<svg id="visual" viewBox="0 0 900 600" width="900" height="600" xmlns="http://www.w3.org/2000/svg" xmlns:xlink="http://www.w3.org/1999/xlink" version="1.1"><path d="M0 253L13.7 236C27.3 219 54.7 185 82 164C109.3 143 136.7 135 163.8 148C191 161 218 195 245.2 217C272.3 239 299.7 249 327 244C354.3 239 381.7 219 409 221C436.3 223 463.7 247 491 240C518.3 233 545.7 195 573 191C600.3 187 627.7 217 654.8 224C682 231 709 215 736.2 197C763.3 179 790.7 159 818 147C845.3 135 872.7 131 886.3 129L900 127L900 0L886.3 0C872.7 0 845.3 0 818 0C790.7 0 763.3 0 736.2 0C709 0 682 0 654.8 0C627.7 0 600.3 0 573 0C545.7 0 518.3 0 491 0C463.7 0 436.3 0 409 0C381.7 0 354.3 0 327 0C299.7 0 272.3 0 245.2 0C218 0 191 0 163.8 0C136.7 0 109.3 0 82 0C54.7 0 27.3 0 13.7 0L0 0Z" fill="#ffa35e"></path><path d="M0 289L13.7 272C27.3 255 54.7 221 82 207C109.3 193 136.7 199 163.8 222C191 245 218 285 245.2 310C272.3 335 299.7 345 327 340C354.3 335 381.7 315 409 309C436.3 303 463.7 311 491 300C518.3 289 545.7 259 573 257C600.3 255 627.7 281 654.8 283C682 285 709 263 736.2 246C763.3 229 790.7 217 818 207C845.3 197 872.7 189 886.3 185L900 181L900 125L886.3 127C872.7 129 845.3 133 818 145C790.7 157 763.3 177 736.2 195C709 213 682 229 654.8 222C627.7 215 600.3 185 573 189C545.7 193 518.3 231 491 238C463.7 245 436.3 221 409 219C381.7 217 354.3 237 327 242C299.7 247 272.3 237 245.2 215C218 193 191 159 163.8 146C136.7 133 109.3 141 82 162C54.7 183 27.3 217 13.7 234L0 251Z" fill="#fc8e3b"></path><path d="M0 379L13.7 385C27.3 391 54.7 403 82 411C109.3 419 136.7 423 163.8 430C191 437 218 447 245.2 450C272.3 453 299.7 449 327 443C354.3 437 381.7 429 409 433C436.3 437 463.7 453 491 448C518.3 443 545.7 417 573 408C600.3 399 627.7 407 654.8 419C682 431 709 447 736.2 453C763.3 459 790.7 455 818 440C845.3 425 872.7 399 886.3 386L900 373L900 179L886.3 183C872.7 187 845.3 195 818 205C790.7 215 763.3 227 736.2 244C709 261 682 283 654.8 281C627.7 279 600.3 253 573 255C545.7 257 518.3 287 491 298C463.7 309 436.3 301 409 307C381.7 313 354.3 333 327 338C299.7 343 272.3 333 245.2 308C218 283 191 243 163.8 220C136.7 197 109.3 191 82 205C54.7 219 27.3 253 13.7 270L0 287Z" fill="#f7770f"></path><path d="M0 523L13.7 523C27.3 523 54.7 523 82 517C109.3 511 136.7 499 163.8 502C191 505 218 523 245.2 524C272.3 525 299.7 509 327 504C354.3 499 381.7 505 409 512C436.3 519 463.7 527 491 521C518.3 515 545.7 495 573 487C600.3 479 627.7 483 654.8 497C682 511 709 535 736.2 543C763.3 551 790.7 543 818 538C845.3 533 872.7 531 886.3 530L900 529L900 371L886.3 384C872.7 397 845.3 423 818 438C790.7 453 763.3 457 736.2 451C709 445 682 429 654.8 417C627.7 405 600.3 397 573 406C545.7 415 518.3 441 491 446C463.7 451 436.3 435 409 431C381.7 427 354.3 435 327 441C299.7 447 272.3 451 245.2 448C218 445 191 435 163.8 428C136.7 421 109.3 417 82 409C54.7 401 27.3 389 13.7 383L0 377Z" fill="#d5670f"></path><path d="M0 601L13.7 601C27.3 601 54.7 601 82 601C109.3 601 136.7 601 163.8 601C191 601 218 601 245.2 601C272.3 601 299.7 601 327 601C354.3 601 381.7 601 409 601C436.3 601 463.7 601 491 601C518.3 601 545.7 601 573 601C600.3 601 627.7 601 654.8 601C682 601 709 601 736.2 601C763.3 601 790.7 601 818 601C845.3 601 872.7 601 886.3 601L900 601L900 527L886.3 528C872.7 529 845.3 531 818 536C790.7 541 763.3 549 736.2 541C709 533 682 509 654.8 495C627.7 481 600.3 477 573 485C545.7 493 518.3 513 491 519C463.7 525 436.3 517 409 510C381.7 503 354.3 497 327 502C299.7 507 272.3 523 245.2 522C218 521 191 503 163.8 500C136.7 497 109.3 509 82 515C54.7 521 27.3 521 13.7 521L0 521Z" fill="#b5580e"></path></svg>